<svg width="1200" height="630" viewBox="0 0 1200 630" fill="none" xmlns="http://www.w3.org/2000/svg">
  <rect width="1200" height="630" fill="#08111D"/>
  <circle cx="220" cy="132" r="180" fill="#7EE0FF" fill-opacity="0.12"/>
  <circle cx="1000" cy="132" r="160" fill="#B7FF70" fill-opacity="0.1"/>
  <rect x="72" y="72" width="1056" height="486" rx="36" fill="#0F1C2C" stroke="rgba(237,246,255,0.18)"/>
  <rect x="110" y="112" width="118" height="118" rx="28" fill="url(#paint0_linear_401_1)"/>
  <path d="M146 136L174 218H162L134 136H146Z" fill="#07111D"/>
  <path d="M208 136L180 218H192L220 136H208Z" fill="#07111D"/>
  <text x="272" y="170" fill="#EDF6FF" font-family="Sora, sans-serif" font-size="64" font-weight="700">VibeLoom</text>
  <text x="272" y="238" fill="#9DB2C7" font-family="Instrument Sans, sans-serif" font-size="30">Contract-driven vibe coding for serious codebases</text>
  <text x="112" y="338" fill="#EDF6FF" font-family="Sora, sans-serif" font-size="42" font-weight="600">Intent → PRD → USM → DM → Spec → Code</text>
  <text x="112" y="404" fill="#9DB2C7" font-family="Instrument Sans, sans-serif" font-size="28">Keep workflows, domain semantics, and module boundaries coherent as AI agents build in parallel.</text>
  <rect x="112" y="460" width="222" height="52" rx="26" fill="#132235" stroke="rgba(126,224,255,0.25)"/>
  <text x="142" y="494" fill="#7EE0FF" font-family="Instrument Sans, sans-serif" font-size="24">USM + DM mandatory</text>
  <rect x="356" y="460" width="226" height="52" rx="26" fill="#132235" stroke="rgba(183,255,112,0.25)"/>
  <text x="388" y="494" fill="#B7FF70" font-family="Instrument Sans, sans-serif" font-size="24">Derived agent guidance</text>
  <rect x="604" y="460" width="248" height="52" rx="26" fill="#132235" stroke="rgba(255,217,121,0.25)"/>
  <text x="636" y="494" fill="#FFD979" font-family="Instrument Sans, sans-serif" font-size="24">Scoped context loading</text>
  <defs>
    <linearGradient id="paint0_linear_401_1" x1="118" y1="118" x2="220" y2="220" gradientUnits="userSpaceOnUse">
      <stop stop-color="#7EE0FF"/>
      <stop offset="1" stop-color="#B7FF70"/>
    </linearGradient>
  </defs>
</svg>
